<svg width="23" height="23" viewBox="0 0 23 23" fill="none" xmlns="http://www.w3.org/2000/svg">
<path d="M6.61437 0.819336H15.9307C19.4798 0.819336 22.3635 3.70297 22.3635 7.25206V16.5684C22.3635 18.2745 21.6857 19.9107 20.4794 21.1171C19.273 22.3234 17.6368 23.0012 15.9307 23.0012H6.61437C3.06528 23.0012 0.181641 20.1175 0.181641 16.5684V7.25206C0.181641 5.546 0.859373 3.90981 2.06574 2.70344C3.27211 1.49707 4.9083 0.819336 6.61437 0.819336ZM6.39255 3.03752C5.33361 3.03752 4.31805 3.45818 3.56927 4.20696C2.82048 4.95574 2.39982 5.97131 2.39982 7.03024V16.7902C2.39982 18.9973 4.18546 20.783 6.39255 20.783H16.1525C17.2115 20.783 18.2271 20.3623 18.9758 19.6135C19.7246 18.8647 20.1453 17.8492 20.1453 16.7902V7.03024C20.1453 4.82315 18.3596 3.03752 16.1525 3.03752H6.39255ZM17.0953 4.70115C17.463 4.70115 17.8156 4.84722 18.0756 5.10721C18.3356 5.3672 18.4816 5.71983 18.4816 6.08752C18.4816 6.4552 18.3356 6.80783 18.0756 7.06782C17.8156 7.32782 17.463 7.47388 17.0953 7.47388C16.7276 7.47388 16.375 7.32782 16.115 7.06782C15.855 6.80783 15.7089 6.4552 15.7089 6.08752C15.7089 5.71983 15.855 5.3672 16.115 5.10721C16.375 4.84722 16.7276 4.70115 17.0953 4.70115ZM11.2725 6.36479C12.7433 6.36479 14.1538 6.94904 15.1938 7.98902C16.2338 9.02899 16.818 10.4395 16.818 11.9102C16.818 13.381 16.2338 14.7915 15.1938 15.8315C14.1538 16.8714 12.7433 17.4557 11.2725 17.4557C9.8018 17.4557 8.3913 16.8714 7.35132 15.8315C6.31135 14.7915 5.7271 13.381 5.7271 11.9102C5.7271 10.4395 6.31135 9.02899 7.35132 7.98902C8.3913 6.94904 9.8018 6.36479 11.2725 6.36479ZM11.2725 8.58297C10.3901 8.58297 9.5438 8.93352 8.91981 9.55751C8.29583 10.1815 7.94528 11.0278 7.94528 11.9102C7.94528 12.7927 8.29583 13.639 8.91981 14.263C9.5438 14.887 10.3901 15.2375 11.2725 15.2375C12.155 15.2375 13.0013 14.887 13.6253 14.263C14.2493 13.639 14.5998 12.7927 14.5998 11.9102C14.5998 11.0278 14.2493 10.1815 13.6253 9.55751C13.0013 8.93352 12.155 8.58297 11.2725 8.58297Z" fill="#323232"/>
</svg>
