<svg width="122" height="131" viewBox="0 0 122 131" fill="none" xmlns="http://www.w3.org/2000/svg">
<path d="M14.3912 9.54688C22.367 9.54688 26.3549 13.8512 26.787 19.8708H22.7991C22.1676 15.6312 19.509 12.9127 14.5574 12.9127C8.90781 12.9127 5.38515 15.8578 5.38515 23.3337C5.38515 30.8097 8.80811 33.7548 14.3912 33.7548C19.9743 33.7548 22.5332 30.8097 23.0649 26.4082H27.1193C26.787 32.3631 22.5 37.1529 14.3912 37.1529C5.65101 37.1206 1.09814 31.2628 1.09814 23.3337C1.09814 15.4047 5.78394 9.54688 14.3912 9.54688Z" fill="#F5F7FA"/>
<path d="M30.0106 0H34.2643V36.2794H30.0106V0Z" fill="#F5F7FA"/>
<path d="M37.5876 23.269C37.5876 15.5341 42.0076 9.54688 51.0136 9.54688C60.0197 9.54688 64.3731 15.5988 64.3731 23.269C64.3731 30.9391 59.9532 37.1206 51.0136 37.1206C42.0741 37.1206 37.5876 31.1009 37.5876 23.269ZM50.9804 33.7548C56.9955 33.7548 60.0197 30.5831 60.0197 23.3337C60.0197 16.0843 56.9955 12.9127 50.9804 12.9127C44.9653 12.9127 41.8747 16.0196 41.8747 23.3337C41.8747 30.6479 44.9653 33.7548 50.9804 33.7548Z" fill="#F5F7FA"/>
<path d="M67.1313 26.8942V10.3564H71.3851V26.4411C71.3851 32.2018 73.9772 33.6905 78.0316 33.6905C83.5815 33.6905 86.7053 28.8683 86.7053 20.2597V10.3564H90.9591V36.2796H86.7053V29.7422C85.1102 34.3054 81.9531 37.0887 76.802 37.0887C70.089 37.0887 67.0981 33.6581 67.0981 26.8618L67.1313 26.8942Z" fill="#F5F7FA"/>
<path d="M116.648 15.3079V0H120.902V36.2794H116.648V31.2955C114.854 34.9849 111.497 37.0885 106.579 37.0885C98.204 37.0885 94.3822 31.2307 94.3822 23.3017C94.3822 15.3726 98.204 9.51486 106.579 9.51486C111.464 9.51486 114.82 11.5861 116.648 15.2756V15.3079ZM107.443 33.7551C113.092 33.7551 116.648 30.6482 116.648 23.3341C116.648 16.0199 113.092 12.913 107.443 12.913C101.361 12.913 98.7024 16.3436 98.7024 23.3341C98.7024 30.3246 101.361 33.7551 107.443 33.7551Z" fill="#F5F7FA"/>
<path d="M13.3944 51.6045L22.3339 73.9029L31.34 51.6045H35.5605L25.059 77.5276H19.4095L8.90796 51.6045H13.3944Z" fill="#F5F7FA"/>
<path d="M39.349 41.6689C40.3128 43.4166 41.0771 44.2257 42.9049 45.1966C41.1768 46.2969 40.4125 47.0413 39.349 48.7242C38.3521 46.8795 37.5545 46.1351 35.7267 45.2613C37.9865 44.3875 38.5182 43.4813 39.349 41.6689Z" fill="#F5F7FA"/>
<path d="M41.4427 51.6045H37.189V77.5276H41.4427V51.6045Z" fill="#F5F7FA"/>
<path d="M76.3037 71.4434V54.8409H71.1859V52.5108L76.6692 51.2162L78.2644 45.8115H80.5575V51.5722H89.3309V54.8409H80.5575V74.1296H88.9653V77.4954H82.6843C77.633 77.4954 76.3037 75.5859 76.3037 71.4434Z" fill="#F5F7FA"/>
<path d="M90.0952 70.6665C90.0952 66.4593 92.3883 63.8378 98.204 62.8993L104.95 61.7989C107.709 61.3458 108.905 60.6015 108.905 58.6273C108.905 55.9735 107.576 53.967 102.358 53.967C97.1405 53.967 95.213 56.3618 94.9472 59.7276H90.6934C90.8596 54.2259 94.914 50.6982 102.258 50.6982C109.603 50.6982 112.793 53.9669 112.793 58.6273V71.0549C112.793 72.9319 112.893 74.9385 113.125 77.4952H109.304C109.038 75.2621 108.938 73.3527 108.938 71.4432C107.941 74.5501 105.116 78.1748 98.9351 78.1748C93.8173 78.1748 90.1617 75.5858 90.1617 70.6665H90.0952ZM99.6662 74.9385C106.014 74.9385 108.872 70.181 108.872 65.2294V62.9964C107.542 63.9349 106.113 64.3556 104.086 64.744L99.6662 65.6178C96.0439 66.3298 94.3822 67.6891 94.3822 70.5047C94.3822 73.4498 96.5756 74.9061 99.6662 74.9061V74.9385Z" fill="#F5F7FA"/>
<path d="M69.4246 51.5396L67.1647 55.2614L66.2342 54.5494C65.2705 53.8697 64.34 53.2872 63.2433 53.2872C62.5786 53.2872 62.1466 53.449 61.8143 53.805C61.1164 54.517 60.7508 56.0381 60.7841 58.2064L61.0167 64.5497C61.0832 69.6631 59.8203 73.5791 57.4276 75.9416C55.7992 77.5274 53.7055 78.3689 51.346 78.3689C47.1255 78.3689 44.4004 75.7474 44.4004 71.6696C44.4004 68.3362 46.1285 65.5206 47.8234 63.1904L48.0892 62.8344H52.8747L51.8445 64.6791C49.8505 66.2649 48.4215 67.5595 47.0922 69.0482C46.7599 69.9544 46.5605 70.8282 46.5605 71.6696C46.5605 74.3558 48.0227 75.974 50.4487 75.974C53.8385 75.974 55.7327 72.414 56.63 64.4202L56.8294 62.6726C57.195 59.3068 57.5273 56.1675 59.1889 53.7403C60.5514 51.7337 62.5786 50.7305 65.1708 50.7305C65.636 50.7305 67.2644 50.7305 68.5605 51.2483L69.491 51.5719L69.4246 51.5396Z" fill="#F5F7FA"/>
<path d="M0.5 82.8848H4.75378V119.164H0.5V82.8848Z" fill="#F5F7FA"/>
<path d="M8.07709 106.186C8.07709 98.4512 12.497 92.4316 21.5031 92.4316C30.5091 92.4316 34.8626 98.4836 34.8626 106.186C34.8626 113.889 30.4426 120.038 21.5031 120.038C12.5635 120.038 8.07709 114.018 8.07709 106.186ZM21.4698 116.64C27.4849 116.64 30.5091 113.468 30.5091 106.218C30.5091 98.9691 27.4849 95.7974 21.4698 95.7974C15.4547 95.7974 12.3641 98.9043 12.3641 106.218C12.3641 113.533 15.4547 116.64 21.4698 116.64Z" fill="#F5F7FA"/>
<path d="M58.923 98.1927V82.8848H63.1767V119.164H58.923V114.18C57.1284 117.87 53.7719 119.973 48.8535 119.973C40.4789 119.973 36.6571 114.116 36.6571 106.186C36.6571 98.2574 40.4789 92.3996 48.8535 92.3996C53.7387 92.3996 57.0952 94.4709 58.923 98.1603V98.1927ZM49.7175 116.64C55.3671 116.64 58.923 113.533 58.923 106.219C58.923 98.9047 55.3671 95.7978 49.7175 95.7978C43.636 95.7978 40.9773 99.2283 40.9773 106.219C40.9773 113.209 43.636 116.64 49.7175 116.64Z" fill="#F5F7FA"/>
<path d="M67.2311 120.847H71.4516C71.7839 124.278 74.0105 126.867 79.9259 126.867C86.2069 126.867 88.8323 124.731 88.8323 119.197V113.533C87.0709 116.899 83.7809 118.614 78.9289 118.614C70.5543 118.614 66.6329 113.533 66.6329 105.539C66.6329 97.5456 70.5876 92.5293 78.9289 92.5293C83.7809 92.5293 87.0709 94.4387 88.8323 97.8045V93.2413H93.0861V119.229C93.0861 126.123 89.6299 130.103 79.9259 130.103C71.9833 130.103 67.7296 126.737 67.2643 120.815L67.2311 120.847ZM79.8595 115.346C85.5422 115.346 88.799 112.595 88.799 105.539C88.799 98.4842 85.5422 95.798 79.8595 95.798C73.7779 95.798 70.9199 98.5489 70.9199 105.539C70.9199 112.53 73.8111 115.346 79.8595 115.346Z" fill="#F5F7FA"/>
<path d="M95.778 106.186C95.778 98.4512 100.131 92.4316 108.971 92.4316C116.947 92.4316 121.5 97.7716 121.5 105.345C121.5 106.024 121.5 106.542 121.4 107.157H99.9985C100.331 114.277 103.82 116.866 109.171 116.866C114.521 116.866 116.781 114.471 117.579 111.202H121.467C120.935 115.151 117.844 120.005 109.005 120.005C100.165 120.005 95.8112 113.986 95.8112 106.154L95.778 106.186ZM117.346 104.05C117.147 98.0952 113.989 95.6033 109.038 95.6033C104.086 95.6033 100.663 97.9334 100.098 104.05H117.346Z" fill="#F5F7FA"/>
</svg>
