<svg width="186" height="22" viewBox="0 0 186 22" fill="none" xmlns="http://www.w3.org/2000/svg">
<path d="M6.66176 4.46097C10.6588 4.46097 12.6573 6.46256 12.8739 9.26179H10.8753C10.5589 7.29029 9.22654 6.02613 6.74503 6.02613C3.91379 6.02613 2.14842 7.39564 2.14842 10.8721C2.14842 14.3486 3.86382 15.7181 6.66176 15.7181C9.4597 15.7181 10.7421 14.3486 11.0086 12.3018H13.0404C12.8739 15.0709 10.7254 17.2983 6.66176 17.2983C2.28165 17.2983 0 14.5743 0 10.8871C0 7.19999 2.34827 4.46097 6.66176 4.46097Z" fill="#13356A"/>
<path d="M14.4893 0.0214844H16.6211V16.8921H14.4893V0.0214844Z" fill="#13356A"/>
<path d="M18.2865 10.842C18.2865 7.24514 20.5015 4.46097 25.0149 4.46097C29.5282 4.46097 31.7099 7.27524 31.7099 10.842C31.7099 14.4087 29.4949 17.2832 25.0149 17.2832C20.5348 17.2832 18.2865 14.484 18.2865 10.842ZM24.9982 15.7181C28.0127 15.7181 29.5282 14.2432 29.5282 10.8721C29.5282 7.50099 28.0127 6.02613 24.9982 6.02613C21.9838 6.02613 20.4349 7.47089 20.4349 10.8721C20.4349 14.2733 21.9838 15.7181 24.9982 15.7181Z" fill="#13356A"/>
<path d="M33.0923 12.5426V4.85228H35.224V12.3319C35.224 15.0108 36.5231 15.703 38.5549 15.703C41.3362 15.703 42.9017 13.4606 42.9017 9.45746V4.85228H45.0335V16.907H42.9017V13.867C42.1023 15.989 40.5201 17.2832 37.9387 17.2832C34.5745 17.2832 33.0756 15.688 33.0756 12.5276L33.0923 12.5426Z" fill="#13356A"/>
<path d="M57.9074 7.13994V0.0214844H60.0391V16.8921H57.9074V14.5744C57.008 16.2901 55.3259 17.2683 52.8611 17.2683C48.6642 17.2683 46.7489 14.5443 46.7489 10.8572C46.7489 7.17004 48.6642 4.44606 52.8611 4.44606C55.3093 4.44606 56.9914 5.40924 57.9074 7.12489V7.13994ZM53.2941 15.7182C56.1254 15.7182 57.9074 14.2734 57.9074 10.8722C57.9074 7.47103 56.1254 6.02627 53.2941 6.02627C50.2464 6.02627 48.914 7.62153 48.914 10.8722C48.914 14.1229 50.2464 15.7182 53.2941 15.7182Z" fill="#13356A"/>
<path d="M68.1165 4.85228L72.5966 15.2215L77.1099 4.85228H79.225L73.9622 16.907H71.131L65.8682 4.85228H68.1165Z" fill="#13356A"/>
<path d="M81.1236 0.232152C81.6066 1.04483 81.9897 1.42107 82.9057 1.87256C82.0396 2.38424 81.6566 2.73038 81.1236 3.51296C80.624 2.65514 80.2243 2.309 79.3083 1.90266C80.4408 1.49632 80.7073 1.07493 81.1236 0.232152Z" fill="#13356A"/>
<path d="M82.1728 4.85228H80.0411V16.907H82.1728V4.85228Z" fill="#13356A"/>
<path d="M99.6433 14.0776V6.35715H97.0785V5.27358L99.8265 4.6716L100.626 2.15832H101.775V4.83714H106.172V6.35715H101.775V15.3267H105.989V16.8919H102.841C100.309 16.8919 99.6433 16.0039 99.6433 14.0776Z" fill="#13356A"/>
<path d="M106.555 13.7164C106.555 11.76 107.704 10.541 110.619 10.1045L113.999 9.59283C115.382 9.38214 115.981 9.03599 115.981 8.11797C115.981 6.8839 115.315 5.95083 112.7 5.95083C110.086 5.95083 109.12 7.0645 108.986 8.62965H106.855C106.938 6.07122 108.97 4.43082 112.65 4.43082C116.331 4.43082 117.93 5.95083 117.93 8.11797V13.897C117.93 14.7699 117.98 15.703 118.096 16.8919H116.181C116.048 15.8535 115.998 14.9655 115.998 14.0776C115.498 15.5224 114.083 17.2079 110.985 17.2079C108.42 17.2079 106.588 16.004 106.588 13.7164H106.555ZM111.351 15.6879C114.532 15.6879 115.965 13.4756 115.965 11.173V10.1346C115.298 10.5711 114.582 10.7667 113.566 10.9473L111.351 11.3536C109.536 11.6847 108.703 12.3168 108.703 13.6261C108.703 14.9956 109.803 15.6729 111.351 15.6729V15.6879Z" fill="#13356A"/>
<path d="M96.1958 4.82213L95.0633 6.55284L94.597 6.22175C94.114 5.9057 93.6477 5.63481 93.0981 5.63481C92.765 5.63481 92.5485 5.71006 92.382 5.87561C92.0322 6.2067 91.849 6.91403 91.8657 7.92235L91.9822 10.8721C92.0156 13.2499 91.3827 15.0709 90.1836 16.1695C89.3675 16.907 88.3183 17.2982 87.1358 17.2982C85.0207 17.2982 83.655 16.0792 83.655 14.183C83.655 12.6329 84.5211 11.3236 85.3704 10.24L85.5037 10.0744H87.9019L87.3856 10.9323C86.3864 11.6697 85.6702 12.2717 85.0041 12.964C84.8375 13.3854 84.7376 13.7917 84.7376 14.183C84.7376 15.4321 85.4704 16.1846 86.6861 16.1846C88.3849 16.1846 89.3342 14.5291 89.7839 10.8119L89.8838 9.99919C90.067 8.43404 90.2335 6.97423 91.0663 5.84551C91.7491 4.91243 92.765 4.44589 94.064 4.44589C94.2972 4.44589 95.1133 4.44589 95.7628 4.68669L96.2291 4.83718L96.1958 4.82213Z" fill="#13356A"/>
<path d="M124.991 0.0214844H127.123V16.8921H124.991V0.0214844Z" fill="#13356A"/>
<path d="M128.789 10.842C128.789 7.24512 131.004 4.44589 135.517 4.44589C140.03 4.44589 142.212 7.26017 142.212 10.842C142.212 14.4238 139.997 17.2832 135.517 17.2832C131.037 17.2832 128.789 14.484 128.789 10.842ZM135.517 15.718C138.531 15.718 140.047 14.2432 140.047 10.8721C140.047 7.50096 138.531 6.0261 135.517 6.0261C132.502 6.0261 130.954 7.47086 130.954 10.8721C130.954 14.2733 132.502 15.718 135.517 15.718Z" fill="#13356A"/>
<path d="M154.27 7.13994V0.0214844H156.402V16.8921H154.27V14.5744C153.37 16.2901 151.688 17.2683 149.223 17.2683C145.027 17.2683 143.111 14.5443 143.111 10.8572C143.111 7.17004 145.027 4.44606 149.223 4.44606C151.672 4.44606 153.354 5.40924 154.27 7.12489V7.13994ZM149.656 15.7182C152.488 15.7182 154.27 14.2734 154.27 10.8722C154.27 7.47103 152.488 6.02627 149.656 6.02627C146.609 6.02627 145.276 7.62153 145.276 10.8722C145.276 14.1229 146.609 15.7182 149.656 15.7182Z" fill="#13356A"/>
<path d="M158.433 17.6746H160.548C160.715 19.2698 161.831 20.4738 164.795 20.4738C167.943 20.4738 169.259 19.4805 169.259 16.9071V14.2734C168.376 15.8385 166.727 16.6362 164.296 16.6362C160.099 16.6362 158.134 14.2734 158.134 10.5561C158.134 6.83888 160.115 4.50619 164.296 4.50619C166.727 4.50619 168.376 5.39412 169.259 6.95928V4.83729H171.391V16.9221C171.391 20.1277 169.658 21.9788 164.795 21.9788C160.815 21.9788 158.683 20.4136 158.45 17.6595L158.433 17.6746ZM164.762 15.1162C167.61 15.1162 169.242 13.8369 169.242 10.5561C169.242 7.27532 167.61 6.0262 164.762 6.0262C161.714 6.0262 160.282 7.30542 160.282 10.5561C160.282 13.8068 161.731 15.1162 164.762 15.1162Z" fill="#13356A"/>
<path d="M172.74 10.842C172.74 7.24512 174.921 4.44589 179.351 4.44589C183.348 4.44589 185.63 6.92908 185.63 10.4507C185.63 10.7667 185.63 11.0075 185.58 11.2935H174.855C175.021 14.6044 176.77 15.8083 179.451 15.8083C182.133 15.8083 183.265 14.6947 183.665 13.1747H185.613C185.347 15.0107 183.798 17.2681 179.368 17.2681C174.938 17.2681 172.756 14.4689 172.756 10.8269L172.74 10.842ZM183.548 9.86375C183.448 7.09462 181.866 5.9358 179.385 5.9358C176.903 5.9358 175.188 7.01937 174.905 9.86375H183.548Z" fill="#13356A"/>
</svg>
