<svg width="115" height="115" viewBox="0 0 115 115" fill="none" xmlns="http://www.w3.org/2000/svg">
<path d="M37.8703 38.5381C37.8703 37.5396 38.2669 36.5821 38.9729 35.8761C39.6789 35.1701 40.6365 34.7734 41.6349 34.7734C42.6334 34.7734 43.5909 35.1701 44.297 35.8761C45.003 36.5821 45.3996 37.5396 45.3996 38.5381V57.4697C46.8362 57.6053 48.3451 57.8703 49.9172 58.295V54.3496H69.4933V64.8906C71.0175 64.8664 72.5336 64.6643 74.0109 64.2883V38.5381C74.0109 36.3415 73.1383 34.2349 71.5851 32.6817C70.0319 31.1284 67.9253 30.2559 65.7287 30.2559C63.5321 30.2559 61.4255 31.1284 59.8723 32.6817C58.3191 34.2349 57.4465 36.3415 57.4465 38.5381V40.0439C57.4465 40.643 57.6844 41.2175 58.108 41.6411C58.5317 42.0648 59.1062 42.3027 59.7053 42.3027C60.3043 42.3027 60.8789 42.0648 61.3025 41.6411C61.7261 41.2175 61.964 40.643 61.964 40.0439V38.5381C61.964 37.5396 62.3607 36.5821 63.0667 35.8761C63.7727 35.1701 64.7302 34.7734 65.7287 34.7734C66.7271 34.7734 67.6847 35.1701 68.3907 35.8761C69.0967 36.5821 69.4933 37.5396 69.4933 38.5381V49.832H49.9172V38.5381C49.9172 36.3415 49.0446 34.2349 47.4914 32.6817C45.9381 31.1284 43.8315 30.2559 41.6349 30.2559C39.4384 30.2559 37.3317 31.1284 35.7785 32.6817C34.2253 34.2349 33.3527 36.3415 33.3527 38.5381V40.0439C33.3527 40.643 33.5907 41.2175 34.0143 41.6411C34.4379 42.0648 35.0124 42.3027 35.6115 42.3027C36.2106 42.3027 36.7851 42.0648 37.2087 41.6411C37.6323 41.2175 37.8703 40.643 37.8703 40.0439V38.5381ZM34.196 67.9806C33.7718 68.3943 33.2021 68.6247 32.6096 68.6222C32.0171 68.6197 31.4494 68.3846 31.0287 67.9674C30.6079 67.5502 30.368 66.9845 30.3605 66.392C30.353 65.7996 30.5785 65.228 30.9885 64.8003H30.9915V64.7973L31.0006 64.7912L31.0126 64.7762L31.0488 64.743C31.2015 64.5899 31.3623 64.4452 31.5306 64.3094C31.9635 63.9521 32.4159 63.6193 32.8859 63.3125C34.4569 62.2974 36.176 61.5323 37.9817 61.0447C42.4873 59.8219 48.833 59.9123 56.6544 64.3816C63.5994 68.3481 69.7042 68.327 74.0531 67.3693C75.8406 66.9782 77.574 66.3714 79.2152 65.5622C79.8166 65.2608 80.4008 64.9259 80.965 64.5593L80.968 64.5563L80.974 64.5533C81.4601 64.2128 82.0606 64.0773 82.6458 64.176C83.231 64.2748 83.7539 64.5999 84.1013 65.0811C84.4487 65.5622 84.5928 66.1608 84.5024 66.7473C84.412 67.3339 84.0944 67.8613 83.6183 68.2156H83.6153L83.6093 68.2216L83.5942 68.2306L83.552 68.2607C83.3547 68.4014 83.1517 68.534 82.9437 68.6583C82.3865 69.001 81.8136 69.3175 81.227 69.607C79.2548 70.5808 77.1715 71.311 75.0229 71.7814C69.7463 72.944 62.47 72.9048 54.4137 68.3029C47.5801 64.3997 42.4571 64.5081 39.1623 65.4026C37.8135 65.761 36.5297 66.3302 35.3585 67.0892C34.9612 67.3454 34.5846 67.6324 34.2321 67.9475L34.196 67.9806ZM31.0156 80.0426C31.4408 80.4608 32.0141 80.694 32.6104 80.6911C33.2068 80.6883 33.7779 80.4498 34.199 80.0275L34.2321 79.9974L34.4339 79.8167C34.6297 79.6541 34.9399 79.4131 35.3585 79.136C36.2018 78.5849 37.4788 77.9073 39.1623 77.4495C42.4602 76.558 47.5801 76.4466 54.4137 80.3498C62.47 84.9517 69.7433 84.9908 75.0259 83.8283C77.1745 83.3579 79.2578 82.6277 81.23 81.6538C81.9832 81.2802 82.7133 80.8618 83.4165 80.401L83.552 80.3106L83.5942 80.2805L83.6093 80.2685L83.6153 80.2654L83.6183 80.2624C84.0944 79.9082 84.412 79.3808 84.5024 78.7942C84.5928 78.2077 84.4487 77.6091 84.1013 77.1279C83.7539 76.6468 83.231 76.3217 82.6458 76.2229C82.0606 76.1242 81.4601 76.2597 80.974 76.6002H80.968L80.965 76.6062L80.8987 76.6514L80.5734 76.8622C80.2723 77.0429 79.8175 77.3079 79.2152 77.6091C78.0105 78.2084 76.2456 78.9343 74.0531 79.4161C69.7042 80.3769 63.6024 80.3949 56.6544 76.4285C48.833 71.9591 42.4873 71.8688 37.9817 73.0915C35.7621 73.6939 34.0514 74.5944 32.8859 75.3594C32.2795 75.7589 31.7027 76.2018 31.1602 76.6845L31.0488 76.7899L31.0126 76.823L31.0006 76.8381L30.9945 76.8441L30.9885 76.8471C30.5691 77.2742 30.3364 77.8504 30.3415 78.449C30.3465 79.0475 30.589 79.6227 31.0156 80.0426Z" fill="#13356A" stroke="#F5F7FA" stroke-width="1.97131"/>
<circle cx="57.5216" cy="57.4356" r="55.4356" stroke="#13356A" stroke-width="2.62841"/>
</svg>
