<svg width="114" height="115" viewBox="0 0 114 115" fill="none" xmlns="http://www.w3.org/2000/svg">
<path fill-rule="evenodd" clip-rule="evenodd" d="M54.4232 72.5635C54.4186 72.5062 54.4163 72.4483 54.4163 72.3898C54.4163 65.9787 50.5914 60.2087 44.6801 57.6993C44.6493 57.6862 44.6189 57.6724 44.5889 57.658C42.656 56.8741 40.6248 56.4821 38.5359 56.4821H34.146V65.1968C34.146 73.9659 41.2852 81.1058 50.0549 81.1058H54.4232V72.5635ZM43.4889 52.7417C44.7608 40.2006 54.6428 30.6285 55.09 30.2017C55.9267 29.3976 57.2524 29.3976 58.0891 30.2017C58.5364 30.6287 68.4215 40.2033 69.6909 52.7477C71.3037 52.3395 72.9708 52.1342 74.6715 52.1342H81.2129C82.4136 52.1342 83.3862 53.1067 83.3862 54.3074V65.1954C83.3862 76.3658 74.302 85.4494 63.1321 85.4494L63.1309 85.4508H56.6765C56.6499 85.4518 56.6232 85.4523 56.5964 85.4523L56.5895 85.4508H56.5894L56.5836 85.4508H50.0481C38.8776 85.4508 29.794 76.3667 29.794 65.1968V54.3088C29.794 53.1081 30.7665 52.1355 31.9673 52.1355H38.5306C40.2148 52.1355 41.8738 52.3385 43.4889 52.7417ZM68.4444 57.7418C62.628 60.213 58.8441 65.8561 58.7588 72.1724C58.766 72.2443 58.7697 72.3172 58.7697 72.391V81.1043H63.1309C71.9 81.1043 79.0398 73.9652 79.0398 65.1954V56.4807H74.6716C72.5146 56.4807 70.4391 56.899 68.4995 57.7194C68.4812 57.7271 68.4628 57.7346 68.4444 57.7418ZM47.7284 54.33C51.6184 56.324 54.6826 59.4697 56.5896 63.2457C58.4912 59.4752 61.5663 56.3347 65.4565 54.3517C65.0327 45.6695 59.3605 38.1452 56.5896 34.9614C53.8193 38.1391 48.1601 45.6502 47.7284 54.33Z" fill="#13356A"/>
<path d="M54.4232 72.5635H55.4088V72.5247L55.4057 72.4859L54.4232 72.5635ZM44.6801 57.6993L44.2941 58.6062L44.295 58.6066L44.6801 57.6993ZM44.5889 57.658L45.0159 56.7696L44.988 56.7562L44.9594 56.7446L44.5889 57.658ZM34.146 56.4821V55.4965H33.1604V56.4821H34.146ZM54.4232 81.1058V82.0914H55.4088V81.1058H54.4232ZM43.4889 52.7417L43.2501 53.698L44.3546 53.9737L44.4695 52.8411L43.4889 52.7417ZM55.09 30.2017L55.7705 30.9148L55.773 30.9124L55.09 30.2017ZM58.0891 30.2017L57.406 30.9123L57.4085 30.9147L58.0891 30.2017ZM69.6909 52.7477L68.7102 52.8469L68.8252 53.9835L69.9327 53.7032L69.6909 52.7477ZM63.1321 85.4494V84.4638H62.6997L62.4069 84.782L63.1321 85.4494ZM63.1309 85.4508V86.4365H63.5633L63.8561 86.1183L63.1309 85.4508ZM56.6765 85.4508V84.4652H56.6586L56.6408 84.4658L56.6765 85.4508ZM56.5964 85.4523L56.3932 86.4167L56.4937 86.4379H56.5964V85.4523ZM56.5895 85.4508L56.7928 84.4863L56.6923 84.4652H56.5895V85.4508ZM56.5894 85.4508L56.5881 86.4365H56.5894V85.4508ZM56.5836 85.4508L56.5849 84.4652H56.5836V85.4508ZM68.4444 57.7418L68.0857 56.8237L68.0722 56.829L68.0589 56.8346L68.4444 57.7418ZM58.7588 72.1724L57.7732 72.1591L57.7725 72.2148L57.778 72.2703L58.7588 72.1724ZM58.7697 81.1043H57.784V82.09H58.7697V81.1043ZM79.0398 56.4807H80.0254V55.495H79.0398V56.4807ZM68.4995 57.7194L68.8824 58.6277L68.8835 58.6272L68.4995 57.7194ZM47.7284 54.33L46.744 54.2811L46.7124 54.9168L47.2788 55.2072L47.7284 54.33ZM56.5896 63.2457L55.7098 63.6901L56.5902 65.4334L57.4696 63.6896L56.5896 63.2457ZM65.4565 54.3517L65.9041 55.2299L66.472 54.9404L66.4409 54.3037L65.4565 54.3517ZM56.5896 34.9614L57.3331 34.3143L56.5902 33.4608L55.8466 34.3137L56.5896 34.9614ZM55.4057 72.4859C55.4033 72.4544 55.402 72.4223 55.402 72.3898H53.4307C53.4307 72.4742 53.434 72.5581 53.4406 72.6412L55.4057 72.4859ZM55.402 72.3898C55.402 65.5821 51.3397 59.4556 45.0653 56.792L44.295 58.6066C49.8431 60.9619 53.4307 66.3752 53.4307 72.3898H55.402ZM45.0662 56.7924C45.0492 56.7852 45.0324 56.7776 45.0159 56.7696L44.1619 58.5464C44.2054 58.5672 44.2494 58.5872 44.2941 58.6062L45.0662 56.7924ZM38.5359 57.4678C40.4993 57.4678 42.4046 57.8357 44.2185 58.5714L44.9594 56.7446C42.9075 55.9124 40.7503 55.4965 38.5359 55.4965V57.4678ZM34.146 57.4678H38.5359V55.4965H34.146V57.4678ZM35.1317 65.1968V56.4821H33.1604V65.1968H35.1317ZM50.0549 80.1201C41.8295 80.1201 35.1317 73.4216 35.1317 65.1968H33.1604C33.1604 74.5103 40.7408 82.0914 50.0549 82.0914V80.1201ZM54.4232 80.1201H50.0549V82.0914H54.4232V80.1201ZM53.4375 72.5635V81.1058H55.4088V72.5635H53.4375ZM44.4695 52.8411C45.0831 46.7913 47.7811 41.4183 50.4179 37.4769C53.0501 33.5425 55.5786 31.0979 55.7705 30.9148L54.4095 29.4886C54.1543 29.7323 51.5181 32.2872 48.7795 36.3808C46.0455 40.4674 43.1666 46.1509 42.5082 52.6422L44.4695 52.8411ZM55.773 30.9124C56.2282 30.4749 56.951 30.475 57.406 30.9123L58.7721 29.4911C57.5539 28.3203 55.6252 28.3203 54.4071 29.491L55.773 30.9124ZM57.4085 30.9147C57.6006 31.0981 60.1298 33.5433 62.7624 37.4787C65.3997 41.4212 68.0979 46.7956 68.7102 52.8469L70.6715 52.6484C70.0145 46.1554 67.1354 40.4703 64.4009 36.3827C61.6618 32.288 59.0249 29.7324 58.7696 29.4887L57.4085 30.9147ZM74.6715 51.1485C72.8911 51.1485 71.1426 51.3635 69.449 51.7921L69.9327 53.7032C71.4647 53.3155 73.0505 53.1198 74.6715 53.1198V51.1485ZM81.2129 51.1485H74.6715V53.1198H81.2129V51.1485ZM84.3718 54.3074C84.3718 52.5623 82.958 51.1485 81.2129 51.1485V53.1198C81.8693 53.1198 82.4005 53.651 82.4005 54.3074H84.3718ZM84.3718 65.1954V54.3074H82.4005V65.1954H84.3718ZM63.1321 86.4351C74.8464 86.4351 84.3718 76.9102 84.3718 65.1954H82.4005C82.4005 75.8215 73.7577 84.4638 63.1321 84.4638V86.4351ZM63.8561 86.1183L63.8574 86.1169L62.4069 84.782L62.4056 84.7833L63.8561 86.1183ZM56.6765 86.4365H63.1309V84.4652H56.6765V86.4365ZM56.5964 86.4379C56.6351 86.4379 56.6737 86.4372 56.7121 86.4358L56.6408 84.4658C56.6261 84.4663 56.6113 84.4666 56.5964 84.4666V86.4379ZM56.3863 86.4153L56.3932 86.4167L56.7997 84.4878L56.7928 84.4863L56.3863 86.4153ZM56.5894 86.4365H56.5895V84.4652H56.5894V86.4365ZM56.5823 86.4365L56.5881 86.4365L56.5907 84.4652L56.5849 84.4652L56.5823 86.4365ZM50.0481 86.4365H56.5836V84.4652H50.0481V86.4365ZM28.8084 65.1968C28.8084 76.911 38.3332 86.4365 50.0481 86.4365V84.4652C39.422 84.4652 30.7797 75.8223 30.7797 65.1968H28.8084ZM28.8084 54.3088V65.1968H30.7797V54.3088H28.8084ZM31.9673 51.1499C30.2222 51.1499 28.8084 52.5637 28.8084 54.3088H30.7797C30.7797 53.6524 31.3109 53.1212 31.9673 53.1212V51.1499ZM38.5306 51.1499H31.9673V53.1212H38.5306V51.1499ZM43.7276 51.7854C42.0336 51.3625 40.2944 51.1499 38.5306 51.1499V53.1212C40.1352 53.1212 41.7139 53.3145 43.2501 53.698L43.7276 51.7854ZM68.0589 56.8346C61.8827 59.4587 57.8638 65.4527 57.7732 72.1591L59.7444 72.1857C59.8244 66.2595 63.3733 60.9673 68.8298 58.649L68.0589 56.8346ZM59.7553 72.391C59.7553 72.2845 59.75 72.1789 59.7396 72.0745L57.778 72.2703C57.782 72.3097 57.784 72.35 57.784 72.391H59.7553ZM59.7553 81.1043V72.391H57.784V81.1043H59.7553ZM63.1309 80.1187H58.7697V82.09H63.1309V80.1187ZM78.0541 65.1954C78.0541 73.4208 71.3556 80.1187 63.1309 80.1187V82.09C72.4443 82.09 80.0254 74.5096 80.0254 65.1954H78.0541ZM78.0541 56.4807V65.1954H80.0254V56.4807H78.0541ZM74.6716 57.4663H79.0398V55.495H74.6716V57.4663ZM68.8835 58.6272C70.6994 57.8591 72.6441 57.4663 74.6716 57.4663V55.495C72.3851 55.495 70.1788 55.9389 68.1156 56.8116L68.8835 58.6272ZM68.803 58.6599C68.8296 58.6495 68.8561 58.6388 68.8824 58.6277L68.1167 56.8111C68.1063 56.8155 68.096 56.8197 68.0857 56.8237L68.803 58.6599ZM47.2788 55.2072C50.98 57.1044 53.8951 60.0969 55.7098 63.6901L57.4694 62.8014C55.4701 58.8426 52.2569 55.5437 48.178 53.4529L47.2788 55.2072ZM57.4696 63.6896C59.278 60.104 62.2027 57.1166 65.9041 55.2299L65.0088 53.4736C60.9299 55.5528 57.7044 58.8464 55.7095 62.8019L57.4696 63.6896ZM66.4409 54.3037C66 45.2695 60.1298 37.5277 57.3331 34.3143L55.8461 35.6085C58.5912 38.7626 64.0654 46.0696 64.472 54.3998L66.4409 54.3037ZM55.8466 34.3137C53.0495 37.5222 47.1931 45.2501 46.744 54.2811L48.7129 54.379C49.1271 46.0502 54.5891 38.756 57.3325 35.6091L55.8466 34.3137Z" fill="#F5F7FA"/>
<circle cx="56.9741" cy="57.4356" r="55.4356" stroke="#13356A" stroke-width="2.62841"/>
</svg>
