<svg width="115" height="115" viewBox="0 0 115 115" fill="none" xmlns="http://www.w3.org/2000/svg">
<path d="M64.6963 65.9697L67.202 71.358C67.202 71.358 78.4662 73.7498 78.4662 79.4389C78.4662 83.4808 73.4547 83.4808 73.4547 83.4808H60.1083L53.5372 79.8302" stroke="#13356A" stroke-width="2.62841" stroke-linecap="round" stroke-linejoin="round"/>
<path d="M49.6793 65.9697L47.1764 71.358C47.1764 71.358 35.9093 73.7498 35.9093 79.4389C35.9093 83.4808 40.9208 83.4808 40.9208 83.4808H46.9661L53.5372 79.8302L61.5684 74.7194" stroke="#13356A" stroke-width="2.62841" stroke-linecap="round" stroke-linejoin="round"/>
<path d="M30.9038 68.6619C30.9038 68.6619 37.1623 67.3156 40.9181 65.9693C44.6708 47.109 55.9321 48.4553 57.1879 48.4553C58.4437 48.4553 69.705 47.109 73.4578 65.9693C77.2135 67.3127 83.472 68.6619 83.472 68.6619M57.1879 42.5939C58.737 42.5939 60.2227 41.9786 61.3181 40.8832C62.4134 39.7878 63.0288 38.3021 63.0288 36.753C63.0288 35.2039 62.4134 33.7183 61.3181 32.6229C60.2227 31.5275 58.737 30.9121 57.1879 30.9121C55.6388 30.9121 54.1531 31.5275 53.0578 32.6229C51.9624 33.7183 51.347 35.2039 51.347 36.753C51.347 38.3021 51.9624 39.7878 53.0578 40.8832C54.1531 41.9786 55.6388 42.5939 57.1879 42.5939Z" stroke="#13356A" stroke-width="2.62841" stroke-linecap="round" stroke-linejoin="round"/>
<circle cx="57.4269" cy="57.4356" r="55.4356" stroke="#13356A" stroke-width="2.62841"/>
</svg>
