<svg width="432" height="51" viewBox="0 0 432 51" fill="none" xmlns="http://www.w3.org/2000/svg">
<path d="M15.9674 10.3175C25.2479 10.3175 29.8881 14.9648 30.3908 21.4641H25.7506C25.0159 16.8867 21.9224 13.9515 16.1608 13.9515C9.58712 13.9515 5.48825 17.1313 5.48825 25.203C5.48825 33.2747 9.47111 36.4544 15.9674 36.4544C22.4638 36.4544 25.4412 33.2747 26.0599 28.5225H30.7775C30.3908 34.9519 25.4026 40.1234 15.9674 40.1234C5.7976 40.1234 0.5 33.7988 0.5 25.2379C0.5 16.677 5.95227 10.3175 15.9674 10.3175Z" fill="#FBFBFF"/>
<path d="M34.1417 0.00976562H39.0913V39.1803H34.1417V0.00976562Z" fill="#FBFBFF"/>
<path d="M42.958 25.1331C42.958 16.7818 48.1009 10.3175 58.5801 10.3175C69.0593 10.3175 74.1248 16.8517 74.1248 25.1331C74.1248 33.4144 68.9819 40.0885 58.5801 40.0885C48.1782 40.0885 42.958 33.5892 42.958 25.1331ZM58.5414 36.4544C65.5404 36.4544 69.0593 33.0301 69.0593 25.203C69.0593 17.3758 65.5404 13.9515 58.5414 13.9515C51.5424 13.9515 47.9462 17.306 47.9462 25.203C47.9462 33.1 51.5424 36.4544 58.5414 36.4544Z" fill="#FBFBFF"/>
<path d="M77.3344 29.0816V11.226H82.284V28.5924C82.284 34.8122 85.3001 36.4196 90.0177 36.4196C96.4753 36.4196 100.11 31.2131 100.11 21.9184V11.226H105.06V39.215H100.11V32.1566C98.2541 37.0835 94.5806 40.0885 88.587 40.0885C80.7759 40.0885 77.2957 36.3846 77.2957 29.0467L77.3344 29.0816Z" fill="#FBFBFF"/>
<path d="M134.951 16.5376V0.00976562H139.9V39.1803H134.951V33.7991C132.863 37.7826 128.957 40.0538 123.234 40.0538C113.49 40.0538 109.043 33.7293 109.043 25.1684C109.043 16.6074 113.49 10.2829 123.234 10.2829C128.918 10.2829 132.824 12.5192 134.951 16.5026V16.5376ZM124.239 36.4548C130.813 36.4548 134.951 33.1003 134.951 25.2033C134.951 17.3063 130.813 13.9518 124.239 13.9518C117.163 13.9518 114.07 17.6557 114.07 25.2033C114.07 32.7509 117.163 36.4548 124.239 36.4548Z" fill="#FBFBFF"/>
<path d="M158.655 11.226L169.056 35.3014L179.536 11.226H184.446L172.227 39.215H165.654L153.434 11.226H158.655Z" fill="#FBFBFF"/>
<path d="M188.855 0.4989C189.976 2.38579 190.865 3.25936 192.992 4.30763C190.981 5.49567 190.092 6.29935 188.855 8.11636C187.695 6.12464 186.767 5.32096 184.64 4.37751C187.269 3.43407 187.888 2.45568 188.855 0.4989Z" fill="#FBFBFF"/>
<path d="M191.291 11.226H186.341V39.215H191.291V11.226Z" fill="#FBFBFF"/>
<path d="M231.854 32.6456V14.7201H225.899V12.2042L232.279 10.8065L234.136 4.97111H236.804V11.1909H247.012V14.7201H236.804V35.5458H246.587V39.1798H239.279C233.401 39.1798 231.854 37.1182 231.854 32.6456Z" fill="#FBFBFF"/>
<path d="M247.902 31.807C247.902 27.2645 250.57 24.4341 257.337 23.4208L265.186 22.2327C268.396 21.7435 269.788 20.9399 269.788 18.8084C269.788 15.9431 268.241 13.7767 262.17 13.7767C256.099 13.7767 253.857 16.3624 253.547 19.9964H248.598C248.791 14.0562 253.509 10.2475 262.054 10.2475C270.6 10.2475 274.312 13.7767 274.312 18.8084V32.2263C274.312 34.2529 274.428 36.4194 274.699 39.1798H270.252C269.943 36.7688 269.827 34.7072 269.827 32.6456C268.667 36.0001 265.38 39.9136 258.187 39.9136C252.232 39.9136 247.979 37.1182 247.979 31.807H247.902ZM259.038 36.3844C266.424 36.3844 269.749 31.2479 269.749 25.9017V23.4907C268.203 24.504 266.54 24.9582 264.181 25.3776L259.038 26.321C254.823 27.0897 252.89 28.5573 252.89 31.5973C252.89 34.7771 255.442 36.3495 259.038 36.3495V36.3844Z" fill="#FBFBFF"/>
<path d="M223.85 11.156L221.22 15.1744L220.137 14.4057C219.016 13.6719 217.933 13.0429 216.657 13.0429C215.884 13.0429 215.381 13.2176 214.995 13.602C214.183 14.3707 213.757 16.013 213.796 18.3542L214.066 25.2029C214.144 30.7238 212.674 34.9519 209.89 37.5027C207.996 39.2148 205.559 40.1233 202.814 40.1233C197.903 40.1233 194.732 37.293 194.732 32.8902C194.732 29.2912 196.743 26.2512 198.715 23.7353L199.024 23.3509H204.593L203.394 25.3427C201.074 27.0549 199.411 28.4526 197.864 30.0599C197.478 31.0383 197.246 31.9817 197.246 32.8902C197.246 35.7905 198.947 37.5376 201.77 37.5376C205.714 37.5376 207.918 33.6939 208.962 25.0631L209.194 23.1762C209.62 19.5422 210.006 16.1528 211.94 13.5321C213.525 11.3657 215.884 10.2825 218.9 10.2825C219.441 10.2825 221.336 10.2825 222.844 10.8415L223.927 11.191L223.85 11.156Z" fill="#FBFBFF"/>
<path d="M290.708 0.00976562H295.657V39.1803H290.708V0.00976562Z" fill="#FBFBFF"/>
<path d="M299.524 25.133C299.524 16.7818 304.667 10.2825 315.146 10.2825C325.626 10.2825 330.691 16.8167 330.691 25.133C330.691 33.4493 325.548 40.0884 315.146 40.0884C304.744 40.0884 299.524 33.5891 299.524 25.133ZM315.146 36.4544C322.145 36.4544 325.664 33.03 325.664 25.2029C325.664 17.3758 322.145 13.9514 315.146 13.9514C308.147 13.9514 304.551 17.3059 304.551 25.2029C304.551 33.0999 308.147 36.4544 315.146 36.4544Z" fill="#FBFBFF"/>
<path d="M358.687 16.5376V0.00976562H363.637V39.1803H358.687V33.7991C356.599 37.7826 352.693 40.0538 346.971 40.0538C337.226 40.0538 332.779 33.7293 332.779 25.1684C332.779 16.6074 337.226 10.2829 346.971 10.2829C352.655 10.2829 356.56 12.5192 358.687 16.5026V16.5376ZM347.976 36.4548C354.55 36.4548 358.687 33.1003 358.687 25.2033C358.687 17.3063 354.55 13.9518 347.976 13.9518C340.9 13.9518 337.806 17.6557 337.806 25.2033C337.806 32.7509 340.9 36.4548 347.976 36.4548Z" fill="#FBFBFF"/>
<path d="M368.354 40.9971H373.265C373.652 44.701 376.243 47.4964 383.126 47.4964C390.434 47.4964 393.489 45.1902 393.489 39.2151V33.1001C391.439 36.7342 387.611 38.5861 381.966 38.5861C372.221 38.5861 367.658 33.1001 367.658 24.4693C367.658 15.8386 372.26 10.4225 381.966 10.4225C387.611 10.4225 391.439 12.4841 393.489 16.1181V11.1912H398.438V39.25C398.438 46.6928 394.417 50.9907 383.126 50.9907C373.884 50.9907 368.934 47.3567 368.393 40.9622L368.354 40.9971ZM383.048 35.0569C389.661 35.0569 393.45 32.0868 393.45 24.4693C393.45 16.8519 389.661 13.9517 383.048 13.9517C375.972 13.9517 372.646 16.9218 372.646 24.4693C372.646 32.0169 376.011 35.0569 383.048 35.0569Z" fill="#FBFBFF"/>
<path d="M401.571 25.133C401.571 16.7818 406.636 10.2825 416.922 10.2825C426.202 10.2825 431.5 16.048 431.5 24.2245C431.5 24.9583 431.5 25.5174 431.384 26.1813H406.481C406.868 33.8686 410.928 36.664 417.154 36.664C423.38 36.664 426.009 34.0783 426.937 30.5491H431.461C430.843 34.8121 427.246 40.0535 416.961 40.0535C406.675 40.0535 401.609 33.5542 401.609 25.0981L401.571 25.133ZM426.666 22.8618C426.434 16.4323 422.761 13.7418 416.999 13.7418C411.238 13.7418 407.255 16.2576 406.597 22.8618H426.666Z" fill="#FBFBFF"/>
</svg>
