<svg width="170" height="21" viewBox="0 0 170 21" fill="none" xmlns="http://www.w3.org/2000/svg">
<path d="M6.06793 4.54375C9.70869 4.54375 11.5291 6.36692 11.7263 8.91662H9.90589C9.61767 7.12086 8.40408 5.96938 6.14378 5.96938C3.56491 5.96938 1.95691 7.21682 1.95691 10.3834C1.95691 13.5499 3.5194 14.7974 6.06793 14.7974C8.61646 14.7974 9.78453 13.5499 10.0273 11.6856H11.878C11.7263 14.2079 9.76937 16.2367 6.06793 16.2367C2.07827 16.2367 0 13.7556 0 10.3971C0 7.03861 2.13894 4.54375 6.06793 4.54375Z" fill="#0C0C0D"/>
<path d="M13.1978 0.5H15.1395V15.8667H13.1978V0.5Z" fill="#0C0C0D"/>
<path d="M16.6564 10.356C16.6564 7.07974 18.674 4.54375 22.785 4.54375C26.896 4.54375 28.8833 7.10715 28.8833 10.356C28.8833 13.6048 26.8657 16.223 22.785 16.223C18.7043 16.223 16.6564 13.6733 16.6564 10.356ZM22.7698 14.7974C25.5156 14.7974 26.896 13.454 26.896 10.3834C26.896 7.31277 25.5156 5.96938 22.7698 5.96938C20.0241 5.96938 18.6133 7.28536 18.6133 10.3834C18.6133 13.4814 20.0241 14.7974 22.7698 14.7974Z" fill="#0C0C0D"/>
<path d="M30.1424 11.905V4.90018H32.0841V11.7131C32.0841 14.1531 33.2674 14.7837 35.1181 14.7837C37.6515 14.7837 39.0774 12.7412 39.0774 9.09484V4.90018H41.0192V15.8803H39.0774V13.1113C38.3493 15.0441 36.9081 16.223 34.5568 16.223C31.4925 16.223 30.1272 14.77 30.1272 11.8913L30.1424 11.905Z" fill="#0C0C0D"/>
<path d="M52.7455 6.98391V0.5H54.6872V15.8667H52.7455V13.7557C51.9263 15.3184 50.3942 16.2094 48.149 16.2094C44.3262 16.2094 42.5817 13.7283 42.5817 10.3698C42.5817 7.01133 44.3262 4.53017 48.149 4.53017C50.379 4.53017 51.9111 5.40748 52.7455 6.9702V6.98391ZM48.5434 14.7975C51.1223 14.7975 52.7455 13.4815 52.7455 10.3835C52.7455 7.28549 51.1223 5.96951 48.5434 5.96951C45.7674 5.96951 44.5538 7.42257 44.5538 10.3835C44.5538 13.3444 45.7674 14.7975 48.5434 14.7975Z" fill="#0C0C0D"/>
<path d="M62.0446 4.90018L66.1253 14.345L70.2363 4.90018H72.1629L67.3692 15.8803H64.7903L59.9967 4.90018H62.0446Z" fill="#0C0C0D"/>
<path d="M73.8922 0.691889C74.3321 1.43212 74.6811 1.77483 75.5154 2.18607C74.7266 2.65214 74.3777 2.96743 73.8922 3.68025C73.4371 2.89889 73.0731 2.5836 72.2387 2.21348C73.2703 1.84337 73.513 1.45954 73.8922 0.691889Z" fill="#0C0C0D"/>
<path d="M74.8479 4.90018H72.9062V15.8803H74.8479V4.90018Z" fill="#0C0C0D"/>
<path d="M90.761 13.3031V6.2709H88.4249V5.28392L90.9279 4.7356L91.6561 2.44635H92.7028V4.88639H96.7076V6.2709H92.7028V14.4409H96.5407V15.8665H93.6737C91.3678 15.8665 90.761 15.0578 90.761 13.3031Z" fill="#0C0C0D"/>
<path d="M97.0565 12.9742C97.0565 11.1921 98.1032 10.0818 100.758 9.68422L103.837 9.21815C105.097 9.02624 105.643 8.71095 105.643 7.87476C105.643 6.7507 105.036 5.9008 102.654 5.9008C100.273 5.9008 99.3927 6.91519 99.2713 8.34083H97.3296C97.4054 6.01046 99.2561 4.51628 102.609 4.51628C105.961 4.51628 107.418 5.9008 107.418 7.87476V13.1387C107.418 13.9337 107.463 14.7836 107.569 15.8666H105.825C105.703 14.9207 105.658 14.1119 105.658 13.3032C105.203 14.6191 103.913 16.1544 101.092 16.1544C98.7555 16.1544 97.0869 15.0578 97.0869 12.9742H97.0565ZM101.425 14.7699C104.323 14.7699 105.627 12.7548 105.627 10.6575V9.71164C105.021 10.1092 104.368 10.2874 103.443 10.4519L101.425 10.822C99.7719 11.1236 99.0134 11.6993 99.0134 12.8919C99.0134 14.1393 100.015 14.7562 101.425 14.7562V14.7699Z" fill="#0C0C0D"/>
<path d="M87.6209 4.87272L86.5893 6.44914L86.1646 6.14757C85.7246 5.8597 85.2999 5.61295 84.7993 5.61295C84.4959 5.61295 84.2987 5.68149 84.147 5.83228C83.8284 6.13386 83.6615 6.77814 83.6767 7.69658L83.7829 10.3834C83.8132 12.5492 83.2368 14.2079 82.1446 15.2086C81.4012 15.8803 80.4455 16.2367 79.3685 16.2367C77.4419 16.2367 76.198 15.1263 76.198 13.3991C76.198 11.9872 76.9868 10.7946 77.7605 9.80762L77.8818 9.65683H80.0663L79.596 10.4382C78.6858 11.1099 78.0335 11.6582 77.4267 12.2888C77.275 12.6726 77.184 13.0427 77.184 13.3991C77.184 14.5369 77.8515 15.2223 78.9589 15.2223C80.5062 15.2223 81.3709 13.7144 81.7805 10.3285L81.8715 9.58829C82.0384 8.16265 82.1901 6.83297 82.9486 5.80486C83.5705 4.95496 84.4959 4.53001 85.6791 4.53001C85.8915 4.53001 86.6348 4.53001 87.2264 4.74934L87.6512 4.88642L87.6209 4.87272Z" fill="#0C0C0D"/>
<path d="M113.849 0.5H115.791V15.8667H113.849V0.5Z" fill="#0C0C0D"/>
<path d="M117.308 10.3559C117.308 7.07971 119.326 4.53001 123.437 4.53001C127.548 4.53001 129.535 7.09342 129.535 10.3559C129.535 13.6185 127.518 16.223 123.437 16.223C119.356 16.223 117.308 13.6733 117.308 10.3559ZM123.437 14.7974C126.183 14.7974 127.563 13.454 127.563 10.3834C127.563 7.31275 126.183 5.96936 123.437 5.96936C120.691 5.96936 119.28 7.28534 119.28 10.3834C119.28 13.4814 120.691 14.7974 123.437 14.7974Z" fill="#0C0C0D"/>
<path d="M140.518 6.98391V0.5H142.46V15.8667H140.518V13.7557C139.699 15.3184 138.167 16.2094 135.922 16.2094C132.099 16.2094 130.354 13.7283 130.354 10.3698C130.354 7.01133 132.099 4.53017 135.922 4.53017C138.152 4.53017 139.684 5.40748 140.518 6.9702V6.98391ZM136.316 14.7975C138.895 14.7975 140.518 13.4815 140.518 10.3835C140.518 7.28549 138.895 5.96951 136.316 5.96951C133.54 5.96951 132.326 7.42257 132.326 10.3835C132.326 13.3444 133.54 14.7975 136.316 14.7975Z" fill="#0C0C0D"/>
<path d="M144.311 16.5795H146.237C146.389 18.0325 147.405 19.1292 150.105 19.1292C152.972 19.1292 154.171 18.2245 154.171 15.8804V13.4815C153.367 14.9071 151.865 15.6336 149.65 15.6336C145.827 15.6336 144.037 13.4815 144.037 10.0956C144.037 6.70969 145.843 4.58494 149.65 4.58494C151.865 4.58494 153.367 5.39372 154.171 6.81935V4.88652H156.113V15.8941C156.113 18.8139 154.535 20.5 150.105 20.5C146.48 20.5 144.538 19.0744 144.326 16.5658L144.311 16.5795ZM150.075 14.2491C152.669 14.2491 154.156 13.0839 154.156 10.0956C154.156 7.10722 152.669 5.96945 150.075 5.96945C147.299 5.96945 145.994 7.13464 145.994 10.0956C145.994 13.0565 147.314 14.2491 150.075 14.2491Z" fill="#0C0C0D"/>
<path d="M157.341 10.3559C157.341 7.07971 159.329 4.53001 163.364 4.53001C167.005 4.53001 169.083 6.79184 169.083 9.99953C169.083 10.2874 169.083 10.5067 169.037 10.7672H159.268C159.42 13.783 161.012 14.8796 163.455 14.8796C165.897 14.8796 166.929 13.8652 167.293 12.4807H169.068C168.825 14.1531 167.414 16.2093 163.379 16.2093C159.344 16.2093 157.357 13.6596 157.357 10.3422L157.341 10.3559ZM167.187 9.46492C167.096 6.94263 165.654 5.88711 163.394 5.88711C161.134 5.88711 159.571 6.87409 159.313 9.46492H167.187Z" fill="#0C0C0D"/>
</svg>
