<svg width="132" height="143" viewBox="0 0 132 143" fill="none" xmlns="http://www.w3.org/2000/svg">
<path d="M15.1541 10.4609C23.855 10.4609 28.2055 15.1566 28.6768 21.7234H24.3263C23.6375 17.0984 20.7372 14.1327 15.3354 14.1327C9.17223 14.1327 5.32933 17.3455 5.32933 25.5011C5.32933 33.6567 9.06346 36.8695 15.1541 36.8695C21.2447 36.8695 24.0363 33.6567 24.6163 28.8552H29.0393C28.6768 35.3514 24 40.5766 15.1541 40.5766C5.61935 40.5413 0.652588 34.151 0.652588 25.5011C0.652588 16.8513 5.76437 10.4609 15.1541 10.4609Z" fill="#FBFBFF"/>
<path d="M32.1934 0.0454102H36.8338V39.623H32.1934V0.0454102Z" fill="#FBFBFF"/>
<path d="M40.4592 25.4305C40.4592 16.9925 45.281 10.4609 55.1058 10.4609C64.9305 10.4609 69.6798 17.0631 69.6798 25.4305C69.6798 33.7979 64.858 40.5413 55.1058 40.5413C45.3535 40.5413 40.4592 33.9745 40.4592 25.4305ZM55.0695 36.8695C61.6314 36.8695 64.9305 33.4096 64.9305 25.5011C64.9305 17.5927 61.6314 14.1327 55.0695 14.1327C48.5076 14.1327 45.136 17.5221 45.136 25.5011C45.136 33.4802 48.5076 36.8695 55.0695 36.8695Z" fill="#FBFBFF"/>
<path d="M72.6888 29.3844V11.3433H77.3293V28.8901C77.3293 35.1745 80.1571 36.7986 84.5801 36.7986C90.6345 36.7986 94.0423 31.5381 94.0423 22.1468V11.3433H98.6828V39.6231H94.0423V32.4913C92.3021 37.4694 88.858 40.5057 83.2387 40.5057C75.9154 40.5057 72.6526 36.7633 72.6526 29.3491L72.6888 29.3844Z" fill="#FBFBFF"/>
<path d="M126.707 16.745V0.0454102H131.347V39.623H126.707V34.1859C124.749 38.2108 121.087 40.5056 115.722 40.5056C106.586 40.5056 102.417 34.1153 102.417 25.4654C102.417 16.8156 106.586 10.4253 115.722 10.4253C121.051 10.4253 124.713 12.6848 126.707 16.7097V16.745ZM116.664 36.8692C122.828 36.8692 126.707 33.4798 126.707 25.5007C126.707 17.5217 122.828 14.1323 116.664 14.1323C110.03 14.1323 107.13 17.8747 107.13 25.5007C107.13 33.1268 110.03 36.8692 116.664 36.8692Z" fill="#FBFBFF"/>
<path d="M14.0666 56.3413L23.8189 80.6669L33.6437 56.3413H38.2479L26.7917 84.6211H20.6286L9.17236 56.3413H14.0666Z" fill="#FBFBFF"/>
<path d="M42.3806 45.5024C43.432 47.4089 44.2658 48.2916 46.2598 49.3507C44.3746 50.5511 43.5407 51.3632 42.3806 53.1991C41.293 51.1866 40.4229 50.3746 38.429 49.4214C40.8942 48.4681 41.4743 47.4796 42.3806 45.5024Z" fill="#FBFBFF"/>
<path d="M44.6647 56.3413H40.0242V84.6211H44.6647V56.3413Z" fill="#FBFBFF"/>
<path d="M82.6949 77.9835V59.8717H77.1118V57.3297L83.0937 55.9175L84.8339 50.0215H87.3354V56.3059H96.9064V59.8717H87.3354V80.9139H96.5076V84.5857H89.6556C84.145 84.5857 82.6949 82.5026 82.6949 77.9835Z" fill="#FBFBFF"/>
<path d="M97.7402 77.1361C97.7402 72.5464 100.242 69.6866 106.586 68.6628L113.946 67.4624C116.955 66.9681 118.26 66.156 118.26 64.0024C118.26 61.1073 116.81 58.9184 111.118 58.9184C105.426 58.9184 103.323 61.531 103.033 65.2028H98.3928C98.5741 59.2008 102.997 55.3525 111.009 55.3525C119.021 55.3525 122.502 58.9184 122.502 64.0024V77.5598C122.502 79.6075 122.61 81.7964 122.864 84.5856H118.695C118.405 82.1495 118.296 80.0665 118.296 77.9834C117.209 81.3728 114.127 85.327 107.384 85.327C101.801 85.327 97.8127 82.5026 97.8127 77.1361H97.7402ZM108.181 81.7964C115.106 81.7964 118.224 76.6065 118.224 71.2048V68.7687C116.773 69.7925 115.215 70.2515 113.003 70.6752L108.181 71.6284C104.23 72.4051 102.417 73.888 102.417 76.9596C102.417 80.1724 104.81 81.7611 108.181 81.7611V81.7964Z" fill="#FBFBFF"/>
<path d="M75.1905 56.2703L72.7252 60.3305L71.7101 59.5538C70.6587 58.8123 69.6436 58.1768 68.4472 58.1768C67.7222 58.1768 67.2509 58.3534 66.8883 58.7417C66.127 59.5185 65.7282 61.1778 65.7645 63.5433L66.0182 70.4632C66.0908 76.0415 64.7131 80.3134 62.1028 82.8908C60.3264 84.6207 58.0424 85.5387 55.4684 85.5387C50.8642 85.5387 47.8914 82.6789 47.8914 78.2304C47.8914 74.5939 49.7766 71.5224 51.6255 68.9804L51.9155 68.592H57.1361L56.0122 70.6044C53.837 72.3344 52.2781 73.7466 50.8279 75.3707C50.4654 76.3592 50.2479 77.3125 50.2479 78.2304C50.2479 81.1608 51.843 82.9261 54.4895 82.9261C58.1874 82.9261 60.2539 79.0424 61.2327 70.322L61.4503 68.4155C61.8491 64.7437 62.2116 61.319 64.0243 58.6711C65.5107 56.4822 67.7222 55.3877 70.55 55.3877C71.0575 55.3877 72.834 55.3877 74.2479 55.9526L75.263 56.3056L75.1905 56.2703Z" fill="#FBFBFF"/>
<path d="M0 90.4658H4.64048V130.043H0V90.4658Z" fill="#FBFBFF"/>
<path d="M8.26587 115.886C8.26587 107.448 13.0876 100.881 22.9124 100.881C32.7372 100.881 37.4864 107.483 37.4864 115.886C37.4864 124.288 32.6647 130.997 22.9124 130.997C13.1601 130.997 8.26587 124.43 8.26587 115.886ZM22.8761 127.289C29.4381 127.289 32.7372 123.83 32.7372 115.921C32.7372 108.013 29.4381 104.553 22.8761 104.553C16.3142 104.553 12.9426 107.942 12.9426 115.921C12.9426 123.9 16.3142 127.289 22.8761 127.289Z" fill="#FBFBFF"/>
<path d="M63.7344 107.165V90.4658H68.3749V130.043H63.7344V124.606C61.7767 128.631 58.115 130.926 52.7495 130.926C43.6135 130.926 39.4443 124.536 39.4443 115.886C39.4443 107.236 43.6135 100.846 52.7495 100.846C58.0788 100.846 61.7404 103.105 63.7344 107.13V107.165ZM53.6921 127.29C59.8552 127.29 63.7344 123.9 63.7344 115.921C63.7344 107.942 59.8552 104.553 53.6921 104.553C47.0576 104.553 44.1573 108.295 44.1573 115.921C44.1573 123.547 47.0576 127.29 53.6921 127.29Z" fill="#FBFBFF"/>
<path d="M72.7973 131.879H77.4016C77.7641 135.622 80.1931 138.446 86.6463 138.446C93.4983 138.446 96.3623 136.116 96.3623 130.079V123.9C94.4409 127.572 90.8517 129.443 85.5587 129.443C76.4227 129.443 72.1448 123.9 72.1448 115.18C72.1448 106.459 76.459 100.987 85.5587 100.987C90.8517 100.987 94.4409 103.07 96.3623 106.742V101.764H101.003V130.114C101.003 137.634 97.2324 141.977 86.6463 141.977C77.9816 141.977 73.3412 138.305 72.8336 131.844L72.7973 131.879ZM86.5738 125.877C92.7732 125.877 96.326 122.876 96.326 115.18C96.326 107.483 92.7732 104.553 86.5738 104.553C79.9393 104.553 76.8215 107.554 76.8215 115.18C76.8215 122.806 79.9756 125.877 86.5738 125.877Z" fill="#FBFBFF"/>
<path d="M103.94 115.886C103.94 107.448 108.689 100.881 118.332 100.881C127.033 100.881 132 106.706 132 114.968C132 115.709 132 116.274 131.891 116.945H108.544C108.906 124.712 112.713 127.537 118.55 127.537C124.387 127.537 126.852 124.924 127.722 121.358H131.964C131.384 125.665 128.012 130.961 118.369 130.961C108.725 130.961 103.976 124.394 103.976 115.85L103.94 115.886ZM127.468 113.556C127.251 107.059 123.807 104.341 118.405 104.341C113.003 104.341 109.269 106.883 108.653 113.556H127.468Z" fill="#FBFBFF"/>
</svg>
