<svg width="200" height="24" viewBox="0 0 200 24" fill="none" xmlns="http://www.w3.org/2000/svg">
<path d="M7.17746 4.78316C11.4839 4.78316 13.6372 6.9397 13.8704 9.95562H11.7172C11.3763 7.8315 9.94079 6.46947 7.26718 6.46947C4.21676 6.46947 2.31473 7.94501 2.31473 11.6906C2.31473 15.4362 4.16293 16.9117 7.17746 16.9117C10.192 16.9117 11.5737 15.4362 11.8608 13.231H14.0499C13.8704 16.2145 11.5557 18.6142 7.17746 18.6142C2.45828 18.6142 0 15.6794 0 11.7068C0 7.73421 2.53006 4.78316 7.17746 4.78316Z" fill="#FBFBFF"/>
<path d="M15.611 0H17.9078V18.1766H15.611V0Z" fill="#FBFBFF"/>
<path d="M19.7021 11.6581C19.7021 7.78286 22.0886 4.78316 26.9513 4.78316C31.814 4.78316 34.1647 7.81529 34.1647 11.6581C34.1647 15.501 31.7782 18.598 26.9513 18.598C22.1245 18.598 19.7021 15.5821 19.7021 11.6581ZM26.9334 16.9117C30.1812 16.9117 31.814 15.3227 31.814 11.6906C31.814 8.05851 30.1812 6.46947 26.9334 6.46947C23.6856 6.46947 22.0168 8.02608 22.0168 11.6906C22.0168 15.3551 23.6856 16.9117 26.9334 16.9117Z" fill="#FBFBFF"/>
<path d="M35.654 13.4904V5.20476H37.9508V13.2634C37.9508 16.1496 39.3504 16.8955 41.5395 16.8955C44.5361 16.8955 46.2228 14.4795 46.2228 10.1664V5.20476H48.5196V18.1927H46.2228V14.9173C45.3615 17.2036 43.6569 18.598 40.8756 18.598C37.251 18.598 35.6361 16.8793 35.6361 13.4742L35.654 13.4904Z" fill="#FBFBFF"/>
<path d="M62.3901 7.66951V0H64.6869V18.1766H62.3901V15.6795C61.4212 17.528 59.6088 18.5819 56.9532 18.5819C52.4314 18.5819 50.3679 15.6471 50.3679 11.6745C50.3679 7.70194 52.4314 4.76709 56.9532 4.76709C59.5909 4.76709 61.4032 5.80483 62.3901 7.65329V7.66951ZM57.4197 16.9118C60.4701 16.9118 62.3901 15.3552 62.3901 11.6907C62.3901 8.02623 60.4701 6.46963 57.4197 6.46963C54.136 6.46963 52.7005 8.18838 52.7005 11.6907C52.7005 15.1931 54.136 16.9118 57.4197 16.9118Z" fill="#FBFBFF"/>
<path d="M73.3896 5.20476L78.2164 16.3766L83.0792 5.20476H85.358L79.6878 18.1927H76.6374L70.9672 5.20476H73.3896Z" fill="#FBFBFF"/>
<path d="M87.4036 0.226976C87.924 1.10257 88.3367 1.50793 89.3236 1.99437C88.3905 2.54567 87.9778 2.9186 87.4036 3.76176C86.8653 2.83753 86.4346 2.46459 85.4477 2.0268C86.6679 1.589 86.955 1.13499 87.4036 0.226976Z" fill="#FBFBFF"/>
<path d="M88.534 5.20476H86.2372V18.1927H88.534V5.20476Z" fill="#FBFBFF"/>
<path d="M107.357 15.1442V6.82613H104.594V5.65867L107.554 5.01009L108.416 2.30225H109.654V5.18845H114.391V6.82613H109.654V16.49H114.193V18.1764H110.802C108.075 18.1764 107.357 17.2197 107.357 15.1442Z" fill="#FBFBFF"/>
<path d="M114.804 14.7551C114.804 12.6472 116.042 11.3338 119.182 10.8636L122.824 10.3123C124.314 10.0853 124.96 9.71234 124.96 8.72325C124.96 7.39365 124.242 6.38835 121.425 6.38835C118.608 6.38835 117.567 7.58823 117.423 9.27455H115.127C115.216 6.51806 117.405 4.75067 121.371 4.75067C125.336 4.75067 127.059 6.38835 127.059 8.72325V14.9497C127.059 15.8901 127.113 16.8954 127.239 18.1764H125.175C125.031 17.0576 124.978 16.1009 124.978 15.1442C124.439 16.7008 122.914 18.5169 119.577 18.5169C116.813 18.5169 114.839 17.2197 114.839 14.7551H114.804ZM119.971 16.8792C123.399 16.8792 124.942 14.4957 124.942 12.0148V10.896C124.224 11.3662 123.452 11.577 122.358 11.7716L119.971 12.2094C118.015 12.5661 117.118 13.2471 117.118 14.6578C117.118 16.1333 118.303 16.863 119.971 16.863V16.8792Z" fill="#FBFBFF"/>
<path d="M103.643 5.17228L102.422 7.03696L101.92 6.68024C101.4 6.33973 100.897 6.04787 100.305 6.04787C99.9461 6.04787 99.7129 6.12894 99.5334 6.3073C99.1566 6.66402 98.9592 7.42611 98.9772 8.51249L99.1028 11.6906C99.1387 14.2525 98.4568 16.2144 97.1649 17.3981C96.2856 18.1926 95.1552 18.6142 93.8812 18.6142C91.6023 18.6142 90.131 17.3008 90.131 15.2578C90.131 13.5877 91.064 12.177 91.9792 11.0095L92.1227 10.8312H94.7066L94.1503 11.7554C93.0737 12.5499 92.3021 13.1985 91.5844 13.9444C91.405 14.3984 91.2973 14.8362 91.2973 15.2578C91.2973 16.6036 92.0868 17.4143 93.3967 17.4143C95.227 17.4143 96.2497 15.6307 96.7342 11.6257L96.8419 10.7501C97.0393 9.06378 97.2187 7.49097 98.1159 6.27487C98.8516 5.26957 99.9461 4.76691 101.346 4.76691C101.597 4.76691 102.476 4.76691 103.176 5.02635L103.678 5.18849L103.643 5.17228Z" fill="#FBFBFF"/>
<path d="M134.667 0H136.964V18.1766H134.667V0Z" fill="#FBFBFF"/>
<path d="M138.758 11.6581C138.758 7.78283 141.145 4.76691 146.008 4.76691C150.87 4.76691 153.221 7.79905 153.221 11.6581C153.221 15.5172 150.834 18.598 146.008 18.598C141.181 18.598 138.758 15.5821 138.758 11.6581ZM146.008 16.9117C149.255 16.9117 150.888 15.3226 150.888 11.6906C150.888 8.05848 149.255 6.46945 146.008 6.46945C142.76 6.46945 141.091 8.02605 141.091 11.6906C141.091 15.3551 142.76 16.9117 146.008 16.9117Z" fill="#FBFBFF"/>
<path d="M166.212 7.66951V0H168.509V18.1766H166.212V15.6795C165.243 17.528 163.431 18.5819 160.775 18.5819C156.253 18.5819 154.19 15.6471 154.19 11.6745C154.19 7.70194 156.253 4.76709 160.775 4.76709C163.413 4.76709 165.225 5.80483 166.212 7.65329V7.66951ZM161.242 16.9118C164.292 16.9118 166.212 15.3552 166.212 11.6907C166.212 8.02623 164.292 6.46963 161.242 6.46963C157.958 6.46963 156.523 8.18838 156.523 11.6907C156.523 15.1931 157.958 16.9118 161.242 16.9118Z" fill="#FBFBFF"/>
<path d="M170.698 19.0197H172.977C173.156 20.7384 174.359 22.0356 177.553 22.0356C180.944 22.0356 182.361 20.9654 182.361 18.1927V15.3552C181.41 17.0415 179.634 17.9009 177.014 17.9009C172.492 17.9009 170.375 15.3552 170.375 11.3502C170.375 7.34515 172.51 4.83188 177.014 4.83188C179.634 4.83188 181.41 5.78854 182.361 7.47486V5.1886H184.658V18.2089C184.658 21.6626 182.792 23.657 177.553 23.657C173.264 23.657 170.967 21.9707 170.716 19.0035L170.698 19.0197ZM177.517 16.2632C180.585 16.2632 182.343 14.8849 182.343 11.3502C182.343 7.81537 180.585 6.46956 177.517 6.46956C174.233 6.46956 172.69 7.8478 172.69 11.3502C172.69 14.8525 174.251 16.2632 177.517 16.2632Z" fill="#FBFBFF"/>
<path d="M186.112 11.6581C186.112 7.78283 188.462 4.76691 193.235 4.76691C197.542 4.76691 200 7.44232 200 11.2365C200 11.577 200 11.8365 199.946 12.1446H188.39C188.57 15.7118 190.454 17.0089 193.343 17.0089C196.232 17.0089 197.452 15.8091 197.883 14.1714H199.982C199.695 16.1496 198.026 18.5818 193.253 18.5818C188.48 18.5818 186.13 15.5658 186.13 11.6419L186.112 11.6581ZM197.757 10.6042C197.649 7.62068 195.945 6.37216 193.271 6.37216C190.598 6.37216 188.749 7.53961 188.444 10.6042H197.757Z" fill="#FBFBFF"/>
</svg>
