<svg width="272" height="333" viewBox="0 0 272 333" fill="none" xmlns="http://www.w3.org/2000/svg">
<path d="M263.313 113.531C261.375 115.03 227.162 134.246 227.162 176.974C227.162 226.396 270.697 243.88 272 244.313C271.8 245.379 265.084 268.258 249.047 291.571C234.747 312.085 219.812 332.567 197.092 332.567C174.373 332.567 168.526 319.412 142.298 319.412C116.738 319.412 107.651 333 86.8689 333C66.0872 333 51.5868 314.017 34.9146 290.705C15.603 263.329 0 220.801 0 180.437C0 115.696 42.2317 81.36 83.7951 81.36C105.88 81.36 124.289 95.8137 138.155 95.8137C151.352 95.8137 171.934 80.4941 197.059 80.4941C206.581 80.4941 240.794 81.36 263.313 113.531ZM185.131 53.0855C195.522 40.7966 202.872 23.7453 202.872 6.69397C202.872 4.32943 202.672 1.93159 202.238 0C185.332 0.632763 165.218 11.2232 153.09 25.2439C143.568 36.0342 134.68 53.0855 134.68 70.3699C134.68 72.9676 135.115 75.5653 135.315 76.3978C136.384 76.5977 138.122 76.8308 139.859 76.8308C155.028 76.8308 174.105 66.7066 185.131 53.0855Z" fill="#191919"/>
</svg>
